HIERARCHY
ROOT Hips
{
	OFFSET -0.001795 -0.223333 0.028219
	CHANNELS 6 Xposition Yposition Zposition Zrotation Yrotation Xrotation 
	JOINT LeftUpLeg
	{
		OFFSET 0.069520 -0.091406 -0.006815
		CHANNELS 3 Zrotation Yrotation Xrotation
		JOINT LeftLeg
		{
			OFFSET 0.034277 -0.375199 -0.004496
			CHANNELS 3 Zrotation Yrotation Xrotation
			JOINT LeftFoot
			{
				OFFSET -0.013596 -0.397961 -0.043693
				CHANNELS 3 Zrotation Yrotation Xrotation
				JOINT LeftToe
				{
					OFFSET 0.026358 -0.055791 0.119288
					CHANNELS 3 Zrotation Yrotation Xrotation
					End Site
					{
						OFFSET 0.000000 0.000000 0.000000
					}
				}
			}
		}
	}
	JOINT RightUpLeg
	{
		OFFSET -0.067670 -0.090522 -0.004320
		CHANNELS 3 Zrotation Yrotation Xrotation
		JOINT RightLeg
		{
			OFFSET -0.038290 -0.382569 -0.008850
			CHANNELS 3 Zrotation Yrotation Xrotation
			JOINT RightFoot
			{
				OFFSET 0.015774 -0.398415 -0.042312
				CHANNELS 3 Zrotation Yrotation Xrotation
				JOINT RightToe
				{
					OFFSET -0.025372 -0.048144 0.123348
					CHANNELS 3 Zrotation Yrotation Xrotation
					End Site
					{
						OFFSET 0.000000 0.000000 0.000000
					}
				}
			}
		}
	}
	JOINT Spine
	{
		OFFSET -0.002533 0.108963 -0.026696
		CHANNELS 3 Zrotation Yrotation Xrotation
		JOINT Spine1
		{
			OFFSET 0.005487 0.135180 0.001092
			CHANNELS 3 Zrotation Yrotation Xrotation
			JOINT Spine2
			{
				OFFSET 0.001457 0.052922 0.025425
				CHANNELS 3 Zrotation Yrotation Xrotation
				JOINT Neck
				{
					OFFSET -0.002778 0.213870 -0.042857
					CHANNELS 3 Zrotation Yrotation Xrotation
					JOINT Head
					{
						OFFSET 0.005152 0.064970 0.051349
						CHANNELS 3 Zrotation Yrotation Xrotation
						End Site
						{
							OFFSET 0.000000 0.000000 0.000000
						}
					}
				}
				JOINT LeftShoulder
				{
					OFFSET 0.078845 0.121749 -0.034090
					CHANNELS 3 Zrotation Yrotation Xrotation
					JOINT LeftArm
					{
						OFFSET 0.090977 0.030469 -0.008868
						CHANNELS 3 Zrotation Yrotation Xrotation
						JOINT LeftForeArm
						{
							OFFSET 0.259612 -0.012772 -0.027456
							CHANNELS 3 Zrotation Yrotation Xrotation
							JOINT LeftHand
							{
								OFFSET 0.249234 0.008986 -0.001171
								CHANNELS 3 Zrotation Yrotation Xrotation
								End Site
								{
									OFFSET 0.000000 0.000000 0.000000
								}
							}
						}
					}
				}
				JOINT RightShoulder
				{
					OFFSET -0.081759 0.118833 -0.038615
					CHANNELS 3 Zrotation Yrotation Xrotation
					JOINT RightArm
					{
						OFFSET -0.096012 0.032551 -0.009143
						CHANNELS 3 Zrotation Yrotation Xrotation
						JOINT RightForeArm
						{
							OFFSET -0.253742 -0.013329 -0.021401
							CHANNELS 3 Zrotation Yrotation Xrotation
							JOINT RightHand
							{
								OFFSET -0.255298 0.007772 -0.005559
								CHANNELS 3 Zrotation Yrotation Xrotation
								End Site
								{
									OFFSET 0.000000 0.000000 0.000000
								}
							}
						}
					}
				}
			}
		}
	}
}
MOTION
Frames: 11
Frame Time: 0.050000
-0.070346 0.933119 0.895484 0.566264 13.345381 6.906982 3.651945 -0.858386 -10.591999 -4.532438 0.331601 3.118837 10.689522 21.681531 8.621970 0.000000 0.000000 0.000000 -0.347719 1.397319 -17.149341 4.518508 -0.797933 9.197747 -9.153947 -21.467865 7.169175 0.000000 0.000000 0.000000 6.361092 -3.449994 24.348683 2.141387 -1.591064 5.574312 -7.074725 5.950494 5.413517 12.200453 -2.699703 -26.136349 0.000000 0.000000 0.000000 -24.513386 -29.321470 10.813878 -38.915023 -27.271699 5.119892 47.378176 -66.493387 -32.148015 0.000000 0.000000 0.000000 14.159302 18.493824 11.145042 47.378031 35.766486 9.550654 -44.325294 69.654557 -23.643278 0.000000 0.000000 0.000000 
-0.069846 0.933286 0.894605 0.747069 13.672894 7.284309 3.224515 -0.923173 -11.153633 -4.610737 0.334865 2.910275 10.700639 21.729168 8.710943 0.000000 0.000000 0.000000 -0.557006 1.374988 -17.397789 4.450172 -0.783914 9.008960 -9.342997 -21.782823 7.455268 0.000000 0.000000 0.000000 6.251049 -3.477581 24.511265 2.503341 -1.768543 5.371402 -7.119191 6.385839 5.317167 12.652623 -2.830026 -26.272330 0.000000 0.000000 0.000000 -24.883694 -29.208962 10.524760 -39.763516 -26.684671 5.160817 46.575054 -66.831583 -31.961024 0.000000 0.000000 0.000000 14.268467 17.990128 11.050753 47.844839 35.853517 9.745850 -45.354427 70.050965 -24.348626 0.000000 0.000000 0.000000 
-0.069360 0.933398 0.893573 0.850943 13.904817 7.609729 2.945044 -0.968541 -11.519195 -4.689922 0.339306 2.684131 10.695360 21.733287 8.664713 0.000000 0.000000 0.000000 -0.743898 1.363868 -17.800518 4.376762 -0.774514 9.063473 -9.346719 -21.745116 7.586350 0.000000 0.000000 0.000000 6.198603 -3.543611 24.844527 2.589641 -1.796197 5.182062 -6.927422 6.483692 5.337154 12.832738 -2.858180 -26.480133 0.000000 0.000000 0.000000 -25.075169 -29.291500 10.529045 -40.356501 -26.885240 5.343678 45.563803 -65.302761 -30.418680 0.000000 0.000000 0.000000 13.999075 18.175642 11.128475 48.111008 36.613741 10.219589 -46.644915 68.928436 -24.678690 0.000000 0.000000 0.000000 
-0.068870 0.933038 0.892544 0.921203 13.968315 7.972031 2.849934 -1.021999 -12.052432 -4.738134 0.342773 2.484278 10.954835 22.162413 8.950403 0.000000 0.000000 0.000000 -0.896526 1.358351 -18.152956 4.383515 -0.771535 8.905516 -9.171705 -21.385520 7.536274 0.000000 0.000000 0.000000 6.012334 -3.536593 25.023644 2.873956 -1.919510 4.944832 -6.720159 6.767889 5.505476 13.023919 -2.851261 -26.839656 0.000000 0.000000 0.000000 -24.957415 -29.450251 10.527057 -41.345375 -27.213852 5.605494 45.221835 -63.404297 -29.233209 0.000000 0.000000 0.000000 13.725856 18.292853 11.195924 48.187587 37.462549 10.671698 -47.755188 68.134934 -24.973780 0.000000 0.000000 0.000000 
-0.068456 0.932922 0.891622 0.932419 13.911275 8.196651 2.728465 -1.049178 -12.286875 -4.727128 0.342783 2.213905 10.936880 22.147987 8.941007 0.000000 0.000000 0.000000 -1.063791 1.350133 -18.451305 4.430265 -0.781984 8.969933 -8.963099 -20.962714 7.489758 0.000000 0.000000 0.000000 5.956363 -3.573159 25.313528 3.053764 -2.023132 5.038447 -6.631681 6.698244 5.404167 13.210604 -2.893675 -27.145980 0.000000 0.000000 0.000000 -24.557818 -29.402992 10.527843 -42.248016 -27.535752 5.817367 45.293916 -61.209355 -28.111723 0.000000 0.000000 0.000000 13.461701 18.738456 11.344828 48.110500 38.292573 11.076338 -48.362569 67.018453 -24.899597 0.000000 0.000000 0.000000 
-0.068163 0.932812 0.890851 0.993293 14.008983 8.562044 2.539435 -1.094800 -12.658358 -4.726427 0.340871 1.942143 10.966194 22.201173 8.842748 0.000000 0.000000 0.000000 -1.230621 1.341068 -18.852613 4.388329 -0.774651 8.985129 -8.836905 -20.695271 7.454106 0.000000 0.000000 0.000000 5.828354 -3.584506 25.495709 3.234772 -2.102077 4.892156 -6.416526 6.693506 5.460057 13.157743 -2.791668 -27.509069 0.000000 0.000000 0.000000 -24.044295 -29.555653 10.616826 -42.840356 -27.783805 5.944620 46.349563 -59.226955 -27.758157 0.000000 0.000000 0.000000 13.095831 18.952557 11.367981 48.276959 38.448981 11.246346 -49.327246 66.844797 -25.451059 0.000000 0.000000 0.000000 
-0.067939 0.932855 0.890185 0.992233 13.996287 8.862547 2.349550 -1.133152 -12.948919 -4.610256 0.331232 1.528412 11.024029 22.319965 9.078781 0.000000 0.000000 0.000000 -1.157279 1.371970 -19.319134 4.181942 -0.731422 9.103320 -8.731821 -20.456665 7.538024 0.000000 0.000000 0.000000 5.737355 -3.588745 25.633225 3.420849 -2.175571 4.696880 -6.403193 6.788077 5.455526 13.084139 -2.670456 -27.852941 0.000000 0.000000 0.000000 -23.311979 -29.473798 10.495255 -43.126326 -28.230689 6.090684 47.554588 -58.030437 -27.933614 0.000000 0.000000 0.000000 13.047376 18.951201 11.388678 48.157699 38.294753 11.137316 -49.879384 67.010007 -25.865873 0.000000 0.000000 0.000000 
-0.067672 0.932992 0.889633 0.948149 13.903170 9.016250 2.120235 -1.158194 -13.084284 -4.335756 0.310871 1.197087 11.083023 22.430172 9.310417 0.000000 0.000000 0.000000 -1.118216 1.388787 -19.526523 3.949811 -0.671953 8.913563 -8.576930 -20.079598 7.888166 0.000000 0.000000 0.000000 5.696121 -3.587055 25.708772 3.437234 -2.140340 4.350338 -6.282969 6.822758 5.518686 12.837187 -2.501914 -28.081277 0.000000 0.000000 0.000000 -22.558639 -29.208941 10.290045 -43.329948 -28.642707 6.203007 49.652883 -57.418688 -28.980537 0.000000 0.000000 0.000000 13.099612 18.910188 11.392802 48.142603 37.793162 10.872991 -48.932795 67.791050 -25.586209 0.000000 0.000000 0.000000 
-0.067322 0.933342 0.889343 0.925841 13.737061 9.165926 1.976597 -1.181837 -13.253672 -4.266144 0.306481 1.319811 10.960573 22.238713 9.025143 0.000000 0.000000 0.000000 -1.159558 1.401966 -19.868414 3.819124 -0.643520 9.082878 -8.370105 -19.654824 7.925798 0.000000 0.000000 0.000000 5.549484 -3.557458 25.830681 3.448528 -2.105213 4.035820 -5.921451 6.823269 5.520741 12.629457 -2.384943 -28.228529 0.000000 0.000000 0.000000 -22.168079 -28.906584 10.135943 -43.433621 -28.898050 6.262241 51.911137 -56.808108 -30.059814 0.000000 0.000000 0.000000 12.947548 18.684417 11.198201 48.441558 36.643748 10.442384 -47.806578 69.469344 -25.645901 0.000000 0.000000 0.000000 
-0.067045 0.933516 0.889347 0.902819 13.602445 9.328812 1.773981 -1.206225 -13.390717 -4.209942 0.301943 1.609266 10.742110 21.889636 8.598026 0.000000 0.000000 0.000000 -1.209805 1.408195 -20.101200 3.593297 -0.590280 9.078259 -8.059923 -19.048550 7.736233 0.000000 0.000000 0.000000 5.633269 -3.562927 25.749642 3.472505 -2.104344 3.946094 -5.743796 6.471710 5.515506 12.116029 -2.125814 -28.534277 0.000000 0.000000 0.000000 -21.704227 -28.252030 9.882675 -43.593585 -29.389421 6.380313 54.123795 -56.196681 -31.003029 0.000000 0.000000 0.000000 12.456566 18.748583 11.000848 49.156981 36.005591 10.412594 -46.803085 70.647120 -25.598213 0.000000 0.000000 0.000000 
-0.067054 0.933467 0.889540 0.770581 13.086760 9.195760 1.927183 -1.189998 -13.364878 -4.423740 0.324460 2.072517 10.534340 21.527029 8.010482 0.000000 0.000000 0.000000 -1.118746 1.442640 -20.119309 3.488456 -0.561654 9.352036 -7.688670 -18.352831 7.464610 0.000000 0.000000 0.000000 5.577791 -3.496507 25.675407 3.276076 -1.976613 3.793336 -5.453511 6.401093 5.519115 11.824068 -2.030384 -28.519791 0.000000 0.000000 0.000000 -21.595164 -27.888247 9.784458 -43.426459 -29.659629 6.404528 54.500068 -54.889714 -30.341182 0.000000 0.000000 0.000000 12.552696 18.427549 10.775091 49.695444 35.396375 10.272259 -44.356062 71.487119 -24.289311 0.000000 0.000000 0.000000 
